HIERARCHY
ROOT Pelvis
{
	OFFSET 0.000000 0.000000 0.000000
	CHANNELS 6 Xposition Yposition Zposition Xrotation Yrotation Zrotation
	JOINT LeftUpLeg_virtual
	{
		OFFSET 0.000000 0.000000 0.000000
		CHANNELS 3 Xrotation Yrotation Zrotation
		JOINT LeftUpLeg
		{
			OFFSET 18.735201 -5.666702 -4.541200
			CHANNELS 3 Xrotation Yrotation Zrotation
			JOINT LeftLeg
			{
				OFFSET -0.021200 -31.938179 0.493100
				CHANNELS 3 Xrotation Yrotation Zrotation
				JOINT LeftFoot
				{
					OFFSET 0.021200 -31.938179 -4.336299
					CHANNELS 3 Xrotation Yrotation Zrotation
					JOINT LeftToeBase
					{
						OFFSET 0.943001 -26.722000 15.023500
						CHANNELS 3 Xrotation Yrotation Zrotation
						End Site
						{
							OFFSET 0 0 0
						}
					}
				}
			}
		}
	}
	JOINT RightUpLeg_virtual
	{
		OFFSET 0.000000 0.000000 0.000000
		CHANNELS 3 Xrotation Yrotation Zrotation
		JOINT RightUpLeg
		{
			OFFSET -18.735201 -5.666702 -4.541200
			CHANNELS 3 Xrotation Yrotation Zrotation
			JOINT RightLeg
			{
				OFFSET 0.018946 -31.938133 0.493100
				CHANNELS 3 Xrotation Yrotation Zrotation
				JOINT RightFoot
				{
					OFFSET -0.018946 -31.938126 -4.336299
					CHANNELS 3 Xrotation Yrotation Zrotation
					JOINT RightToeBase
					{
						OFFSET -0.943001 -26.722004 15.023500
						CHANNELS 3 Xrotation Yrotation Zrotation
						End Site
						{
							OFFSET 0 0 0
						}
					}
				}
			}
		}
	}
	JOINT Hips_virtual
	{
		OFFSET 0.000000 0.000000 0.000000
		CHANNELS 3 Xrotation Yrotation Zrotation
		JOINT Hips
		{
			OFFSET -0.000000 -0.000000 -0.000000
			CHANNELS 3 Xrotation Yrotation Zrotation
			JOINT Spine
			{
				OFFSET 0.000000 10.199997 -0.299500
				CHANNELS 3 Xrotation Yrotation Zrotation
				JOINT Spine1
				{
					OFFSET 0.000000 11.900002 -1.516600
					CHANNELS 3 Xrotation Yrotation Zrotation
					JOINT Spine2
					{
						OFFSET 0.000000 13.600006 -2.842500
						CHANNELS 3 Xrotation Yrotation Zrotation
						JOINT Neck_virtual
						{
							OFFSET 0.000000 0.000000 0.000000
							CHANNELS 3 Xrotation Yrotation Zrotation
							JOINT Neck
							{
								OFFSET 0.000000 9.624100 -2.890100
								CHANNELS 3 Xrotation Yrotation Zrotation
								JOINT Head
								{
									OFFSET 0.000000 14.068802 -1.351900
									CHANNELS 3 Xrotation Yrotation Zrotation
									End Site
									{
										OFFSET 0 0 0
									}
								}
							}
						}
						JOINT LeftShoulder_virtual
						{
							OFFSET 0.000000 0.000000 0.000000
							CHANNELS 3 Xrotation Yrotation Zrotation
							JOINT LeftShoulder
							{
								OFFSET 15.263000 10.923401 -0.547700
								CHANNELS 3 Xrotation Yrotation Zrotation
								JOINT LeftArm
								{
									OFFSET 25.438599 -2.830597 -13.032500
									CHANNELS 3 Xrotation Yrotation Zrotation
									JOINT LeftForeArm
									{
										OFFSET 29.960503 0.000000 0.000000
										CHANNELS 3 Xrotation Yrotation Zrotation
										JOINT LeftHand
										{
											OFFSET 27.849251 0.000000 0.000000
											CHANNELS 3 Xrotation Yrotation Zrotation
											End Site
											{
												OFFSET 0 0 0
											}
										}
									}
								}
							}
						}
						JOINT RightShoulder_virtual
						{
							OFFSET 0.000000 0.000000 0.000000
							CHANNELS 3 Xrotation Yrotation Zrotation
							JOINT RightShoulder
							{
								OFFSET -15.263000 10.923401 -0.547700
								CHANNELS 3 Xrotation Yrotation Zrotation
								JOINT RightArm
								{
									OFFSET -25.438599 -2.830597 -13.032500
									CHANNELS 3 Xrotation Yrotation Zrotation
									JOINT RightForeArm
									{
										OFFSET -29.960503 0.000000 0.000000
										CHANNELS 3 Xrotation Yrotation Zrotation
										JOINT RightHand
										{
											OFFSET -27.849251 0.000000 0.000000
											CHANNELS 3 Xrotation Yrotation Zrotation
											End Site
											{
												OFFSET 0 0 0
											}
										}
									}
								}
							}
						}
					}
				}
			}
		}
	}
}
MOTION
Frames: 8
Frame Time: 0.03333333
1.409332 91.991920 3.831200 0.000000 0.000000 0.000000 -1.744430 -17.847610 0.619658 -44.927140 4.288360 17.661641 58.456850 7.638205 -0.963118 5.059396 7.624211 -0.659903 0.000000 0.000000 0.000000 2.940256 -6.200120 15.032565 -27.707284 -9.937292 0.219838 39.068231 -12.209267 -6.403109 -13.017690 -11.896934 -7.688141 0.000000 0.000000 0.000000 1.064278 -3.257895 1.085123 -5.771837 -11.160114 6.128092 3.765034 2.295377 -4.419991 1.694953 2.159908 -3.222800 0.000000 0.000000 0.000000 2.941888 2.287526 -3.009983 -0.681113 0.379293 -0.188898 0.000000 0.000000 0.000000 1.928561 3.962511 -3.341790 0.749803 -1.371061 -5.937815 -13.073946 2.250336 -37.376482 -1.727614 -29.040267 -0.372931 0.000000 0.000000 0.000000 1.496198 1.047607 -2.885075 0.346077 4.794176 -6.049379 -21.655700 10.802499 11.338947 -3.397224 39.996164 -2.244271 0.000000 0.000000 0.000000 
0.776426 92.355042 4.924198 0.000000 0.000000 0.000000 -3.603052 -20.112942 -0.542373 -46.473772 3.711342 16.409910 58.529004 8.243190 -0.965361 4.823209 8.207335 -0.258269 0.000000 0.000000 0.000000 3.458233 -5.498630 15.824775 -26.638822 -9.997583 1.338943 37.295165 -12.199181 -7.366433 -14.385012 -11.428201 -9.233435 0.000000 0.000000 0.000000 -0.888349 -2.313434 0.119777 -4.676776 -12.383687 7.768376 3.593611 2.168656 -4.900644 1.788973 2.349489 -3.239698 0.000000 0.000000 0.000000 3.104734 2.358346 -3.123213 -0.707419 0.444589 0.130796 0.000000 0.000000 0.000000 1.845523 3.997966 -3.639628 1.275847 -1.404986 -4.837326 -12.928954 4.692749 -35.675963 -0.776317 -25.993958 0.604487 0.000000 0.000000 0.000000 1.728717 1.147806 -3.115676 1.250510 4.164607 -5.591493 -17.444737 11.934060 6.746180 -3.076043 41.122930 -2.165561 0.000000 0.000000 0.000000 
0.032747 91.913895 6.704216 0.000000 0.000000 0.000000 -4.586503 -19.715092 -1.221259 -46.875691 3.781914 15.568790 59.198315 8.308316 -1.359272 5.476835 8.495003 -0.818371 0.000000 0.000000 0.000000 4.694626 -4.750881 16.986754 -24.596266 -10.102890 2.822212 34.968492 -11.794903 -7.903388 -16.143420 -10.812617 -9.706473 0.000000 0.000000 0.000000 0.607323 -1.271992 0.430515 -5.789364 -14.557390 4.996633 4.546921 2.377039 -5.296542 1.509100 2.627788 -3.051139 0.000000 0.000000 0.000000 3.334333 2.865090 -3.140388 -1.036905 0.503484 0.088771 0.000000 0.000000 0.000000 1.783088 4.950528 -3.585624 0.960880 -1.722132 -4.774641 -14.006944 7.167089 -34.397451 -1.091405 -21.803443 0.949537 0.000000 0.000000 0.000000 1.439782 1.487382 -2.961949 1.226402 4.371633 -4.645751 -16.017502 17.344092 6.973015 -3.540427 41.615926 -2.380294 0.000000 0.000000 0.000000 
-0.536585 92.119675 6.910185 0.000000 0.000000 0.000000 -5.126760 -22.642543 -1.045263 -47.818673 2.863943 15.871877 61.078161 8.285674 -1.456322 6.782777 8.445355 -0.908399 0.000000 0.000000 0.000000 5.438180 -7.459453 18.113660 -24.074533 -11.116278 3.789622 33.832785 -11.479564 -7.828076 -16.981874 -10.608647 -9.328621 0.000000 0.000000 0.000000 -0.022619 1.260104 -0.352912 -5.017751 -14.316991 3.948248 3.004619 1.973382 -4.595052 1.730058 2.779753 -3.387040 0.000000 0.000000 0.000000 2.860604 3.022995 -3.026745 -1.100819 0.599990 0.253662 0.000000 0.000000 0.000000 2.302984 5.052752 -3.378501 1.214411 -1.055831 -1.533444 -14.435263 5.040365 -31.530732 -0.706893 -23.845208 2.078430 0.000000 0.000000 0.000000 1.458450 1.490283 -2.988028 0.919914 2.487974 -3.433687 -18.134181 16.249479 6.465696 -3.967588 44.153567 -1.632209 0.000000 0.000000 0.000000 
-1.121142 92.519707 9.545626 0.000000 0.000000 0.000000 -5.936902 -21.397630 -1.240169 -48.980151 3.083897 15.980655 62.374203 8.519731 -2.379278 7.690895 9.092962 -2.054849 0.000000 0.000000 0.000000 6.225390 -10.697855 18.420890 -23.567534 -12.081348 3.838338 31.706869 -11.447868 -7.942964 -18.563133 -10.587422 -9.366770 0.000000 0.000000 0.000000 0.773057 1.845794 -0.476971 -10.424837 -18.802420 4.763363 4.300291 3.230503 -5.170127 1.764599 3.222193 -3.252127 0.000000 0.000000 0.000000 3.162042 3.623472 -3.027413 -1.207522 0.791968 0.436697 0.000000 0.000000 0.000000 2.400758 5.737291 -3.497866 1.420138 0.434268 -0.737773 -15.973992 6.498811 -29.048894 -1.446885 -22.245330 2.290481 0.000000 0.000000 0.000000 1.363119 1.868578 -2.846846 1.276293 3.585838 -3.117469 -19.688251 19.237074 3.765333 -4.510515 46.817788 -1.515396 0.000000 0.000000 0.000000 
-2.554116 92.317345 9.878254 0.000000 0.000000 0.000000 -6.479672 -22.103179 -2.083438 -49.526754 3.162075 15.285183 64.528178 9.861507 -3.444669 9.007732 10.916535 -2.388620 0.000000 0.000000 0.000000 6.662735 -12.590716 19.217267 -23.343087 -12.773606 4.533784 31.887445 -10.951997 -7.679186 -18.498732 -10.216978 -8.563937 0.000000 0.000000 0.000000 -0.929197 -2.595127 0.260274 -7.975547 -19.018622 6.146419 1.863744 3.497779 -5.356490 1.601293 3.747070 -3.564260 0.000000 0.000000 0.000000 2.821873 4.078825 -3.069128 -0.881644 0.694171 0.528159 0.000000 0.000000 0.000000 0.744734 6.307834 -4.199860 0.654452 -0.006304 -1.752538 -15.672576 8.935949 -27.906440 -0.939905 -20.043272 2.601413 0.000000 0.000000 0.000000 1.569635 2.196835 -2.888851 1.536577 3.974618 -3.032218 -23.427120 21.711100 1.341258 -4.116984 41.143185 -2.398939 0.000000 0.000000 0.000000 
-3.294758 94.053268 11.469301 0.000000 0.000000 0.000000 -6.969125 -23.465427 -2.906141 -49.697792 3.030005 14.423227 66.073761 10.703024 -4.718941 9.952981 12.336658 -3.468145 0.000000 0.000000 0.000000 6.860901 -15.161884 18.407911 -23.305475 -13.240976 3.546627 33.723062 -10.974483 -7.640716 -16.871182 -10.234672 -8.804125 0.000000 0.000000 0.000000 0.387556 -2.727729 0.935000 -8.983553 -22.419620 6.581461 1.310355 4.925894 -5.154352 1.879400 3.714780 -3.555730 0.000000 0.000000 0.000000 3.454870 4.570294 -3.405741 -0.657542 0.712774 0.371233 0.000000 0.000000 0.000000 0.685546 7.150191 -4.353454 0.924744 0.063037 -1.187174 -15.545316 9.834330 -24.936097 -0.980432 -19.359111 3.055281 0.000000 0.000000 0.000000 1.913881 2.526226 -2.982491 2.052271 3.415888 -2.717981 -24.086032 24.061771 -0.082114 -4.096454 40.166912 -2.634851 0.000000 0.000000 0.000000 
-2.180089 93.668785 11.072021 0.000000 0.000000 0.000000 -8.034813 -26.133161 -4.712659 -50.802913 2.963824 13.020819 67.004354 11.903740 -5.463884 9.184356 13.677845 -3.402240 0.000000 0.000000 0.000000 8.262795 -16.787466 18.019246 -21.266602 -13.617667 3.169585 34.216970 -10.444584 -7.538235 -16.609702 -9.688199 -8.283133 0.000000 0.000000 0.000000 1.586371 -2.716023 1.073547 -8.341810 -21.875959 7.996358 2.110141 5.555474 -4.731717 1.712541 4.174837 -3.735483 0.000000 0.000000 0.000000 4.164970 5.238887 -3.667290 -0.590950 0.776992 0.466644 0.000000 0.000000 0.000000 0.990262 7.592458 -4.331695 0.678526 0.904601 0.637599 -16.413360 10.853335 -24.013193 -1.594358 -21.132899 3.557979 0.000000 0.000000 0.000000 2.536130 2.978913 -3.287805 1.932086 3.740219 -2.609478 -26.592641 25.799863 -2.110512 -5.817225 40.807805 -2.417789 0.000000 0.000000 0.000000 
